# xmcd
#
# Track frame offsets:
#	150
#	12792
#	26207
#	45305
#	62167
#	75667
#	92800
#	107800
#	122932
#	139347
#	154215
#	169965
#	187502
#	200215
#
# Disc length: 2873
#
# Revision: 1
# Processed by: cddbd v1.5.1PL0 Copyright (c) Steve Scherf et al.
# Submitted via: VisiTrax 2.9.3.171 - For more info visit www.synapsa.com
# Normalized: r0:DSETVAR1
#
DISCID=be0b370e
DTITLE=Various Artist - Mr Music Country 2-02
DYEAR=1900
DGENRE=
TTITLE0=Monty and The Pythons - I Can't Get Over You (To Save My Life)
TTITLE1=Ricky van Shelton - Who's Laughin' Now
TTITLE2=Karen Poston - I Could Loan Some Lonesome To You
TTITLE3=Confederate Railroad with George Jones - She Treats Her Body Like a Temple
TTITLE4=Sherry Lee - When In Texas
TTITLE5=Honky Tonk Heroes (Willie, Waylon and Billy Joe) - Easy Come Easy Go (aka Ride Me Down Easy)
TTITLE6=Susanna van Tassel - You Broke The Rules
TTITLE7=Jennifer Fitts and Cory Morrow - It Feels Like You're Still Here
TTITLE8=Loretta Lynn - I Can't Hear The Music
TTITLE9=Daryle Singletary - Dumaflache
TTITLE10=Jenna Raye - One Step Away
TTITLE11=Paul Alan Coons - Everything She Touches
TTITLE12=Kelly Sowell - Wrong Night
TTITLE13=Danni Leigh - House Of Pain
EXTD=
EXTT0=
EXTT1=
EXTT2=
EXTT3=
EXTT4=
EXTT5=
EXTT6=
EXTT7=
EXTT8=
EXTT9=
EXTT10=
EXTT11=
EXTT12=
EXTT13=
PLAYORDER=
